<svg width="258" height="78" viewBox="0 0 258 78" fill="none" xmlns="http://www.w3.org/2000/svg">
<g style="mix-blend-mode:soft-light" filter="url(#filter0_d_52_879)">
<rect x="4" width="250" height="70" fill="#0B3C4D" fill-opacity="0.9" shape-rendering="crispEdges"/>
</g>
<rect x="51" width="4.7043" height="70" fill="#1DDADD" fill-opacity="0.14"/>
<path d="M56 0H55V70H56V0Z" fill="#1DDADD"/>
<path d="M55.2519 0L55.6259 0.374054L52 4L51.6259 3.62595L55.2519 0Z" fill="#1DDADD"/>
<path d="M55.2519 6L55.6259 6.37405L52 10L51.6259 9.62595L55.2519 6Z" fill="#1DDADD"/>
<path d="M55.2519 12L55.6259 12.3741L52 16L51.6259 15.6259L55.2519 12Z" fill="#1DDADD"/>
<path d="M55.2519 18L55.6259 18.3741L52 22L51.6259 21.6259L55.2519 18Z" fill="#1DDADD"/>
<path d="M55.2519 24L55.6259 24.3741L52 28L51.6259 27.6259L55.2519 24Z" fill="#1DDADD"/>
<path d="M55.2519 30L55.6259 30.3741L52 34L51.6259 33.6259L55.2519 30Z" fill="#1DDADD"/>
<path d="M55.2519 36L55.6259 36.3741L52 40L51.6259 39.6259L55.2519 36Z" fill="#1DDADD"/>
<path d="M55.2519 42L55.6259 42.3741L52 46L51.6259 45.6259L55.2519 42Z" fill="#1DDADD"/>
<path d="M55.2519 48L55.6259 48.3741L52 52L51.6259 51.6259L55.2519 48Z" fill="#1DDADD"/>
<path d="M55.2519 54L55.6259 54.3741L52 58L51.6259 57.6259L55.2519 54Z" fill="#1DDADD"/>
<path d="M55.2519 60L55.6259 60.3741L52 64L51.6259 63.6259L55.2519 60Z" fill="#1DDADD"/>
<path d="M55.2519 66L55.6259 66.3741L52 70L51.6259 69.6259L55.2519 66Z" fill="#1DDADD"/>
<rect x="51" width="1" height="70" fill="#1DDADD"/>
<rect x="152" width="4.7043" height="70" fill="#1DDADD"/>
<defs>
<filter id="filter0_d_52_879" x="0" y="0" width="258" height="78" filterUnits="userSpaceOnUse" color-interpolation-filters="sRGB">
<feFlood flood-opacity="0" result="BackgroundImageFix"/>
<feColorMatrix in="SourceAlpha" type="matrix" values="0 0 0 0 0 0 0 0 0 0 0 0 0 0 0 0 0 0 127 0" result="hardAlpha"/>
<feOffset dy="4"/>
<feGaussianBlur stdDeviation="2"/>
<feComposite in2="hardAlpha" operator="out"/>
<feColorMatrix type="matrix" values="0 0 0 0 0 0 0 0 0 0 0 0 0 0 0 0 0 0 0.25 0"/>
<feBlend mode="normal" in2="BackgroundImageFix" result="effect1_dropShadow_52_879"/>
<feBlend mode="normal" in="SourceGraphic" in2="effect1_dropShadow_52_879" result="shape"/>
</filter>
</defs>
</svg>
