<svg width="258" height="78" viewBox="0 0 258 78" fill="none" xmlns="http://www.w3.org/2000/svg">
<g style="mix-blend-mode:soft-light" filter="url(#filter0_d_59_1933)">
<rect x="4" width="250" height="70" fill="#0B3C4D" fill-opacity="0.9" shape-rendering="crispEdges"/>
</g>
<rect x="152" width="4.7043" height="70" fill="#1DDADD"/>
<rect x="100" width="4.7043" height="70" fill="#1DDADD" fill-opacity="0.14"/>
<path d="M105 0H104V70H105V0Z" fill="#1DDADD"/>
<path d="M104.252 0L104.626 0.374054L101 4L100.626 3.62595L104.252 0Z" fill="#1DDADD"/>
<path d="M104.252 6L104.626 6.37405L101 10L100.626 9.62595L104.252 6Z" fill="#1DDADD"/>
<path d="M104.252 12L104.626 12.3741L101 16L100.626 15.6259L104.252 12Z" fill="#1DDADD"/>
<path d="M104.252 18L104.626 18.3741L101 22L100.626 21.6259L104.252 18Z" fill="#1DDADD"/>
<path d="M104.252 24L104.626 24.3741L101 28L100.626 27.6259L104.252 24Z" fill="#1DDADD"/>
<path d="M104.252 30L104.626 30.3741L101 34L100.626 33.6259L104.252 30Z" fill="#1DDADD"/>
<path d="M104.252 36L104.626 36.3741L101 40L100.626 39.6259L104.252 36Z" fill="#1DDADD"/>
<path d="M104.252 42L104.626 42.3741L101 46L100.626 45.6259L104.252 42Z" fill="#1DDADD"/>
<path d="M104.252 48L104.626 48.3741L101 52L100.626 51.6259L104.252 48Z" fill="#1DDADD"/>
<path d="M104.252 54L104.626 54.3741L101 58L100.626 57.6259L104.252 54Z" fill="#1DDADD"/>
<path d="M104.252 60L104.626 60.3741L101 64L100.626 63.6259L104.252 60Z" fill="#1DDADD"/>
<path d="M104.252 66L104.626 66.3741L101 70L100.626 69.6259L104.252 66Z" fill="#1DDADD"/>
<rect x="100" width="1" height="70" fill="#1DDADD"/>
<defs>
<filter id="filter0_d_59_1933" x="0" y="0" width="258" height="78" filterUnits="userSpaceOnUse" color-interpolation-filters="sRGB">
<feFlood flood-opacity="0" result="BackgroundImageFix"/>
<feColorMatrix in="SourceAlpha" type="matrix" values="0 0 0 0 0 0 0 0 0 0 0 0 0 0 0 0 0 0 127 0" result="hardAlpha"/>
<feOffset dy="4"/>
<feGaussianBlur stdDeviation="2"/>
<feComposite in2="hardAlpha" operator="out"/>
<feColorMatrix type="matrix" values="0 0 0 0 0 0 0 0 0 0 0 0 0 0 0 0 0 0 0.25 0"/>
<feBlend mode="normal" in2="BackgroundImageFix" result="effect1_dropShadow_59_1933"/>
<feBlend mode="normal" in="SourceGraphic" in2="effect1_dropShadow_59_1933" result="shape"/>
</filter>
</defs>
</svg>
